<?xml version="1.0" encoding="UTF-8" standalone="no"?>
<!DOCTYPE svg PUBLIC "-//W3C//DTD SVG 1.1//EN"
 "http://www.w3.org/Graphics/SVG/1.1/DTD/svg11.dtd">
<!-- Generated by graphviz version 2.40.1 (0)
 -->
<!-- Title: G Pages: 1 -->
<svg width="379pt" height="287pt"
 viewBox="0.00 0.00 379.36 287.10" xmlns="http://www.w3.org/2000/svg" xmlns:xlink="http://www.w3.org/1999/xlink">
<g id="graph0" class="graph" transform="scale(1 1) rotate(0) translate(4 283.1049)">
<title>G</title>
<polygon fill="#ffffff" stroke="transparent" points="-4,4 -4,-283.1049 375.3563,-283.1049 375.3563,4 -4,4"/>
<!-- board.cache_hierarchy.ruby_system.network.routers0 -->
<g id="node1" class="node">
<title>board.cache_hierarchy.ruby_system.network.routers0</title>
<path fill="#cce6fc" stroke="#000000" d="M121.1752,-103.4076C121.1752,-103.4076 151.1752,-103.4076 151.1752,-103.4076 157.1752,-103.4076 163.1752,-109.4076 163.1752,-115.4076 163.1752,-115.4076 163.1752,-127.4076 163.1752,-127.4076 163.1752,-133.4076 157.1752,-139.4076 151.1752,-139.4076 151.1752,-139.4076 121.1752,-139.4076 121.1752,-139.4076 115.1752,-139.4076 109.1752,-133.4076 109.1752,-127.4076 109.1752,-127.4076 109.1752,-115.4076 109.1752,-115.4076 109.1752,-109.4076 115.1752,-103.4076 121.1752,-103.4076"/>
<text text-anchor="middle" x="136.1752" y="-117.7076" font-family="Arial" font-size="14.00" fill="#000000">R 0</text>
</g>
<!-- board.cache_hierarchy.ruby_system.network.routers1 -->
<g id="node2" class="node">
<title>board.cache_hierarchy.ruby_system.network.routers1</title>
<path fill="#cce6fc" stroke="#000000" d="M202.2933,-106.3624C202.2933,-106.3624 232.2933,-106.3624 232.2933,-106.3624 238.2933,-106.3624 244.2933,-112.3624 244.2933,-118.3624 244.2933,-118.3624 244.2933,-130.3624 244.2933,-130.3624 244.2933,-136.3624 238.2933,-142.3624 232.2933,-142.3624 232.2933,-142.3624 202.2933,-142.3624 202.2933,-142.3624 196.2933,-142.3624 190.2933,-136.3624 190.2933,-130.3624 190.2933,-130.3624 190.2933,-118.3624 190.2933,-118.3624 190.2933,-112.3624 196.2933,-106.3624 202.2933,-106.3624"/>
<text text-anchor="middle" x="217.2933" y="-120.6624" font-family="Arial" font-size="14.00" fill="#000000">R 1</text>
</g>
<!-- board.cache_hierarchy.ruby_system.network.routers0&#45;&#45;board.cache_hierarchy.ruby_system.network.routers1 -->
<g id="edge1" class="edge">
<title>board.cache_hierarchy.ruby_system.network.routers0&#45;&#45;board.cache_hierarchy.ruby_system.network.routers1</title>
<path fill="none" stroke="#042d50" d="M163.1863,-122.3915C168.6017,-122.5888 174.3812,-122.7993 180.0724,-123.0066"/>
<polygon fill="#042d50" stroke="#042d50" points="180.0027,-126.5063 190.1235,-123.3727 180.2576,-119.5109 180.0027,-126.5063"/>
</g>
<!-- board.cache_hierarchy.ruby_system.network.routers2 -->
<g id="node3" class="node">
<title>board.cache_hierarchy.ruby_system.network.routers2</title>
<path fill="#cce6fc" stroke="#000000" d="M145.7751,-80.5133C145.7751,-80.5133 175.7751,-80.5133 175.7751,-80.5133 181.7751,-80.5133 187.7751,-86.5133 187.7751,-92.5133 187.7751,-92.5133 187.7751,-104.5133 187.7751,-104.5133 187.7751,-110.5133 181.7751,-116.5133 175.7751,-116.5133 175.7751,-116.5133 145.7751,-116.5133 145.7751,-116.5133 139.7751,-116.5133 133.7751,-110.5133 133.7751,-104.5133 133.7751,-104.5133 133.7751,-92.5133 133.7751,-92.5133 133.7751,-86.5133 139.7751,-80.5133 145.7751,-80.5133"/>
<text text-anchor="middle" x="160.7751" y="-94.8133" font-family="Arial" font-size="14.00" fill="#000000">R 2</text>
</g>
<!-- board.cache_hierarchy.ruby_system.network.routers0&#45;&#45;board.cache_hierarchy.ruby_system.network.routers2 -->
<g id="edge2" class="edge">
<title>board.cache_hierarchy.ruby_system.network.routers0&#45;&#45;board.cache_hierarchy.ruby_system.network.routers2</title>
<path fill="none" stroke="#042d50" d="M161.3891,-103.3786C161.4077,-103.317 161.4257,-103.2557 161.443,-103.1946"/>
<polygon fill="#042d50" stroke="#042d50" points="162.2362,-113.5821 161.4927,-103.0122 155.4824,-111.7388 162.2362,-113.5821"/>
</g>
<!-- board.cache_hierarchy.ruby_system.network.routers3 -->
<g id="node4" class="node">
<title>board.cache_hierarchy.ruby_system.network.routers3</title>
<path fill="#cce6fc" stroke="#000000" d="M119.2243,-137.5142C119.2243,-137.5142 149.2243,-137.5142 149.2243,-137.5142 155.2243,-137.5142 161.2243,-143.5142 161.2243,-149.5142 161.2243,-149.5142 161.2243,-161.5142 161.2243,-161.5142 161.2243,-167.5142 155.2243,-173.5142 149.2243,-173.5142 149.2243,-173.5142 119.2243,-173.5142 119.2243,-173.5142 113.2243,-173.5142 107.2243,-167.5142 107.2243,-161.5142 107.2243,-161.5142 107.2243,-149.5142 107.2243,-149.5142 107.2243,-143.5142 113.2243,-137.5142 119.2243,-137.5142"/>
<text text-anchor="middle" x="134.2243" y="-151.8142" font-family="Arial" font-size="14.00" fill="#000000">R 3</text>
</g>
<!-- board.cache_hierarchy.ruby_system.network.routers0&#45;&#45;board.cache_hierarchy.ruby_system.network.routers3 -->
<g id="edge3" class="edge">
<title>board.cache_hierarchy.ruby_system.network.routers0&#45;&#45;board.cache_hierarchy.ruby_system.network.routers3</title>
<path fill="none" stroke="#042d50" d="M128.3958,-139.6736C128.3943,-139.736 128.3929,-139.7983 128.3916,-139.8605"/>
<polygon fill="#042d50" stroke="#042d50" points="125.0763,-129.9833 128.3882,-140.0473 132.0751,-130.1146 125.0763,-129.9833"/>
</g>
<!-- board.cache_hierarchy.ruby_system.network.routers4 -->
<g id="node5" class="node">
<title>board.cache_hierarchy.ruby_system.network.routers4</title>
<path fill="#cce6fc" stroke="#000000" d="M200.9954,-139.8841C200.9954,-139.8841 230.9954,-139.8841 230.9954,-139.8841 236.9954,-139.8841 242.9954,-145.8841 242.9954,-151.8841 242.9954,-151.8841 242.9954,-163.8841 242.9954,-163.8841 242.9954,-169.8841 236.9954,-175.8841 230.9954,-175.8841 230.9954,-175.8841 200.9954,-175.8841 200.9954,-175.8841 194.9954,-175.8841 188.9954,-169.8841 188.9954,-163.8841 188.9954,-163.8841 188.9954,-151.8841 188.9954,-151.8841 188.9954,-145.8841 194.9954,-139.8841 200.9954,-139.8841"/>
<text text-anchor="middle" x="215.9954" y="-154.1841" font-family="Arial" font-size="14.00" fill="#000000">R 4</text>
</g>
<!-- board.cache_hierarchy.ruby_system.network.routers0&#45;&#45;board.cache_hierarchy.ruby_system.network.routers4 -->
<g id="edge4" class="edge">
<title>board.cache_hierarchy.ruby_system.network.routers0&#45;&#45;board.cache_hierarchy.ruby_system.network.routers4</title>
<path fill="none" stroke="#042d50" d="M160.5273,-139.6024C166.5334,-142.6967 173.0926,-145.7856 179.5322,-148.5617"/>
<polygon fill="#042d50" stroke="#042d50" points="178.223,-151.8077 188.803,-152.3693 180.8824,-145.3325 178.223,-151.8077"/>
</g>
<!-- board.cache_hierarchy.ruby_system.network.routers5 -->
<g id="node6" class="node">
<title>board.cache_hierarchy.ruby_system.network.routers5</title>
<path fill="#cce6fc" stroke="#000000" d="M176.5903,-163.6704C176.5903,-163.6704 206.5903,-163.6704 206.5903,-163.6704 212.5903,-163.6704 218.5903,-169.6704 218.5903,-175.6704 218.5903,-175.6704 218.5903,-187.6704 218.5903,-187.6704 218.5903,-193.6704 212.5903,-199.6704 206.5903,-199.6704 206.5903,-199.6704 176.5903,-199.6704 176.5903,-199.6704 170.5903,-199.6704 164.5903,-193.6704 164.5903,-187.6704 164.5903,-187.6704 164.5903,-175.6704 164.5903,-175.6704 164.5903,-169.6704 170.5903,-163.6704 176.5903,-163.6704"/>
<text text-anchor="middle" x="191.5903" y="-177.9704" font-family="Arial" font-size="14.00" fill="#000000">R 5</text>
</g>
<!-- board.cache_hierarchy.ruby_system.network.routers0&#45;&#45;board.cache_hierarchy.ruby_system.network.routers5 -->
<g id="edge5" class="edge">
<title>board.cache_hierarchy.ruby_system.network.routers0&#45;&#45;board.cache_hierarchy.ruby_system.network.routers5</title>
<path fill="none" stroke="#042d50" d="M145.009,-139.642C148.9633,-144.8384 153.8266,-150.5753 158.9131,-156.1069"/>
<polygon fill="#042d50" stroke="#042d50" points="156.4875,-158.6348 165.9234,-163.4528 161.5515,-153.802 156.4875,-158.6348"/>
</g>
<!-- board.cache_hierarchy.ruby_system.network.routers6 -->
<g id="node7" class="node">
<title>board.cache_hierarchy.ruby_system.network.routers6</title>
<path fill="#cce6fc" stroke="#000000" d="M143.4455,-160.3934C143.4455,-160.3934 173.4455,-160.3934 173.4455,-160.3934 179.4455,-160.3934 185.4455,-166.3934 185.4455,-172.3934 185.4455,-172.3934 185.4455,-184.3934 185.4455,-184.3934 185.4455,-190.3934 179.4455,-196.3934 173.4455,-196.3934 173.4455,-196.3934 143.4455,-196.3934 143.4455,-196.3934 137.4455,-196.3934 131.4455,-190.3934 131.4455,-184.3934 131.4455,-184.3934 131.4455,-172.3934 131.4455,-172.3934 131.4455,-166.3934 137.4455,-160.3934 143.4455,-160.3934"/>
<text text-anchor="middle" x="158.4455" y="-174.6934" font-family="Arial" font-size="14.00" fill="#000000">R 6</text>
</g>
<!-- board.cache_hierarchy.ruby_system.network.routers0&#45;&#45;board.cache_hierarchy.ruby_system.network.routers6 -->
<g id="edge6" class="edge">
<title>board.cache_hierarchy.ruby_system.network.routers0&#45;&#45;board.cache_hierarchy.ruby_system.network.routers6</title>
<path fill="none" stroke="#042d50" d="M136.6754,-139.5102C137.6851,-143.1017 138.9662,-146.9453 140.4122,-150.7681"/>
<polygon fill="#042d50" stroke="#042d50" points="137.2111,-152.1856 144.2853,-160.0726 143.6735,-149.4955 137.2111,-152.1856"/>
</g>
<!-- board.cache_hierarchy.ruby_system.network.routers7 -->
<g id="node8" class="node">
<title>board.cache_hierarchy.ruby_system.network.routers7</title>
<path fill="#cce6fc" stroke="#000000" d="M179.3546,-81.8156C179.3546,-81.8156 209.3546,-81.8156 209.3546,-81.8156 215.3546,-81.8156 221.3546,-87.8156 221.3546,-93.8156 221.3546,-93.8156 221.3546,-105.8156 221.3546,-105.8156 221.3546,-111.8156 215.3546,-117.8156 209.3546,-117.8156 209.3546,-117.8156 179.3546,-117.8156 179.3546,-117.8156 173.3546,-117.8156 167.3546,-111.8156 167.3546,-105.8156 167.3546,-105.8156 167.3546,-93.8156 167.3546,-93.8156 167.3546,-87.8156 173.3546,-81.8156 179.3546,-81.8156"/>
<text text-anchor="middle" x="194.3546" y="-96.1156" font-family="Arial" font-size="14.00" fill="#000000">R 7</text>
</g>
<!-- board.cache_hierarchy.ruby_system.network.routers0&#45;&#45;board.cache_hierarchy.ruby_system.network.routers7 -->
<g id="edge7" class="edge">
<title>board.cache_hierarchy.ruby_system.network.routers0&#45;&#45;board.cache_hierarchy.ruby_system.network.routers7</title>
<path fill="none" stroke="#042d50" d="M163.5141,-118.398C163.6696,-118.345 163.8252,-118.2918 163.9809,-118.2383"/>
<polygon fill="#042d50" stroke="#042d50" points="159.0047,-123.7258 167.2511,-117.0738 156.6564,-117.1314 159.0047,-123.7258"/>
</g>
<!-- board.cache_hierarchy.ruby_system.network.routers1&#45;&#45;board.cache_hierarchy.ruby_system.network.routers2 -->
<g id="edge8" class="edge">
<title>board.cache_hierarchy.ruby_system.network.routers1&#45;&#45;board.cache_hierarchy.ruby_system.network.routers2</title>
<path fill="none" stroke="#042d50" d="M190.0275,-111.8922C189.9428,-111.8534 189.8581,-111.8147 189.7734,-111.776"/>
<polygon fill="#042d50" stroke="#042d50" points="198.5442,-111.9389 187.9944,-110.9623 195.6326,-118.3047 198.5442,-111.9389"/>
</g>
<!-- board.cache_hierarchy.ruby_system.network.routers1&#45;&#45;board.cache_hierarchy.ruby_system.network.routers3 -->
<g id="edge9" class="edge">
<title>board.cache_hierarchy.ruby_system.network.routers1&#45;&#45;board.cache_hierarchy.ruby_system.network.routers3</title>
<path fill="none" stroke="#042d50" d="M190.1769,-127.8614C183.939,-129.7834 177.2084,-132.1325 170.6496,-134.6593"/>
<polygon fill="#042d50" stroke="#042d50" points="169.2021,-131.4692 161.2406,-138.4596 171.8237,-137.9598 169.2021,-131.4692"/>
</g>
<!-- board.cache_hierarchy.ruby_system.network.routers1&#45;&#45;board.cache_hierarchy.ruby_system.network.routers4 -->
<g id="edge10" class="edge">
<title>board.cache_hierarchy.ruby_system.network.routers1&#45;&#45;board.cache_hierarchy.ruby_system.network.routers4</title>
<path fill="none" stroke="#042d50" d="M209.865,-142.4324C209.8647,-142.4936 209.8645,-142.5548 209.8644,-142.616"/>
<polygon fill="#042d50" stroke="#042d50" points="206.3499,-132.8046 209.8646,-142.7994 213.3499,-132.7943 206.3499,-132.8046"/>
</g>
<!-- board.cache_hierarchy.ruby_system.network.routers1&#45;&#45;board.cache_hierarchy.ruby_system.network.routers5 -->
<g id="edge11" class="edge">
<title>board.cache_hierarchy.ruby_system.network.routers1&#45;&#45;board.cache_hierarchy.ruby_system.network.routers5</title>
<path fill="none" stroke="#042d50" d="M202.0715,-142.3867C200.162,-146.0793 198.3162,-150.0427 196.6661,-153.9822"/>
<polygon fill="#042d50" stroke="#042d50" points="193.3084,-152.9663 193.0431,-163.5578 199.8555,-155.4435 193.3084,-152.9663"/>
</g>
<!-- board.cache_hierarchy.ruby_system.network.routers1&#45;&#45;board.cache_hierarchy.ruby_system.network.routers6 -->
<g id="edge12" class="edge">
<title>board.cache_hierarchy.ruby_system.network.routers1&#45;&#45;board.cache_hierarchy.ruby_system.network.routers6</title>
<path fill="none" stroke="#042d50" d="M190.2558,-140.247C185.5362,-144.2764 180.738,-148.6875 176.3354,-153.0448"/>
<polygon fill="#042d50" stroke="#042d50" points="173.808,-150.6235 169.3833,-160.2502 178.8455,-155.4839 173.808,-150.6235"/>
</g>
<!-- board.cache_hierarchy.ruby_system.network.routers1&#45;&#45;board.cache_hierarchy.ruby_system.network.routers7 -->
<g id="edge13" class="edge">
<title>board.cache_hierarchy.ruby_system.network.routers1&#45;&#45;board.cache_hierarchy.ruby_system.network.routers7</title>
<path fill="none" stroke="#042d50" d="M209.6626,-106.3492C209.6193,-106.3058 209.5758,-106.2626 209.5324,-106.2194"/>
<polygon fill="#042d50" stroke="#042d50" points="218.9759,-110.6329 209.4017,-106.0903 214.0534,-115.612 218.9759,-110.6329"/>
</g>
<!-- board.cache_hierarchy.ruby_system.network.routers2&#45;&#45;board.cache_hierarchy.ruby_system.network.routers0 -->
<g id="edge14" class="edge">
<title>board.cache_hierarchy.ruby_system.network.routers2&#45;&#45;board.cache_hierarchy.ruby_system.network.routers0</title>
<path fill="none" stroke="#042d50" d="M135.5612,-116.5423C135.5425,-116.6039 135.5246,-116.6653 135.5073,-116.7263"/>
<polygon fill="#042d50" stroke="#042d50" points="134.7141,-106.3388 135.4576,-116.9088 141.4679,-108.1822 134.7141,-106.3388"/>
</g>
<!-- board.cache_hierarchy.ruby_system.network.routers2&#45;&#45;board.cache_hierarchy.ruby_system.network.routers3 -->
<g id="edge15" class="edge">
<title>board.cache_hierarchy.ruby_system.network.routers2&#45;&#45;board.cache_hierarchy.ruby_system.network.routers3</title>
<path fill="none" stroke="#042d50" d="M152.3743,-116.5488C150.631,-120.2915 148.7574,-124.3138 146.8995,-128.3024"/>
<polygon fill="#042d50" stroke="#042d50" points="143.7114,-126.8578 142.6616,-137.4005 150.0568,-129.8135 143.7114,-126.8578"/>
</g>
<!-- board.cache_hierarchy.ruby_system.network.routers2&#45;&#45;board.cache_hierarchy.ruby_system.network.routers4 -->
<g id="edge16" class="edge">
<title>board.cache_hierarchy.ruby_system.network.routers2&#45;&#45;board.cache_hierarchy.ruby_system.network.routers4</title>
<path fill="none" stroke="#042d50" d="M169.5854,-116.5607C173.3599,-121.472 177.9649,-126.8678 182.8002,-132.1026"/>
<polygon fill="#042d50" stroke="#042d50" points="180.5294,-134.7912 189.9792,-139.5819 185.5794,-129.9438 180.5294,-134.7912"/>
</g>
<!-- board.cache_hierarchy.ruby_system.network.routers2&#45;&#45;board.cache_hierarchy.ruby_system.network.routers5 -->
<g id="edge17" class="edge">
<title>board.cache_hierarchy.ruby_system.network.routers2&#45;&#45;board.cache_hierarchy.ruby_system.network.routers5</title>
<path fill="none" stroke="#042d50" d="M161.7024,-116.8549C164.4788,-127.8047 169.3476,-141.9014 174.461,-154.158"/>
<polygon fill="#042d50" stroke="#042d50" points="171.342,-155.7597 178.5789,-163.4978 177.7471,-152.9356 171.342,-155.7597"/>
</g>
<!-- board.cache_hierarchy.ruby_system.network.routers2&#45;&#45;board.cache_hierarchy.ruby_system.network.routers6 -->
<g id="edge18" class="edge">
<title>board.cache_hierarchy.ruby_system.network.routers2&#45;&#45;board.cache_hierarchy.ruby_system.network.routers6</title>
<path fill="none" stroke="#042d50" d="M154.4365,-116.8711C153.1723,-126.7618 152.5864,-139.1761 152.7914,-150.2583"/>
<polygon fill="#042d50" stroke="#042d50" points="149.299,-150.5123 153.2338,-160.3493 156.2923,-150.2056 149.299,-150.5123"/>
</g>
<!-- board.cache_hierarchy.ruby_system.network.routers2&#45;&#45;board.cache_hierarchy.ruby_system.network.routers7 -->
<g id="edge19" class="edge">
<title>board.cache_hierarchy.ruby_system.network.routers2&#45;&#45;board.cache_hierarchy.ruby_system.network.routers7</title>
<path fill="none" stroke="#042d50" d="M187.9877,-104.9368C188.0454,-104.9216 188.1028,-104.9062 188.1599,-104.8907"/>
<polygon fill="#042d50" stroke="#042d50" points="179.6267,-110.8868 188.3305,-104.8435 177.7577,-104.14 179.6267,-110.8868"/>
</g>
<!-- board.cache_hierarchy.ruby_system.network.routers3&#45;&#45;board.cache_hierarchy.ruby_system.network.routers0 -->
<g id="edge20" class="edge">
<title>board.cache_hierarchy.ruby_system.network.routers3&#45;&#45;board.cache_hierarchy.ruby_system.network.routers0</title>
<path fill="none" stroke="#042d50" d="M142.0037,-137.2482C142.0052,-137.1859 142.0066,-137.1236 142.0079,-137.0613"/>
<polygon fill="#042d50" stroke="#042d50" points="145.3232,-146.9385 142.0113,-136.8745 138.3244,-146.8073 145.3232,-146.9385"/>
</g>
<!-- board.cache_hierarchy.ruby_system.network.routers3&#45;&#45;board.cache_hierarchy.ruby_system.network.routers1 -->
<g id="edge21" class="edge">
<title>board.cache_hierarchy.ruby_system.network.routers3&#45;&#45;board.cache_hierarchy.ruby_system.network.routers1</title>
<path fill="none" stroke="#042d50" d="M161.3407,-152.0153C167.5786,-150.0933 174.3092,-147.7442 180.868,-145.2174"/>
<polygon fill="#042d50" stroke="#042d50" points="182.3155,-148.4075 190.277,-141.417 179.6939,-141.9169 182.3155,-148.4075"/>
</g>
<!-- board.cache_hierarchy.ruby_system.network.routers3&#45;&#45;board.cache_hierarchy.ruby_system.network.routers4 -->
<g id="edge22" class="edge">
<title>board.cache_hierarchy.ruby_system.network.routers3&#45;&#45;board.cache_hierarchy.ruby_system.network.routers4</title>
<path fill="none" stroke="#042d50" d="M161.4529,-156.3034C166.97,-156.4633 172.8619,-156.634 178.6579,-156.802"/>
<polygon fill="#042d50" stroke="#042d50" points="178.7885,-160.3072 188.8857,-157.0984 178.9913,-153.3101 178.7885,-160.3072"/>
</g>
<!-- board.cache_hierarchy.ruby_system.network.routers3&#45;&#45;board.cache_hierarchy.ruby_system.network.routers5 -->
<g id="edge23" class="edge">
<title>board.cache_hierarchy.ruby_system.network.routers3&#45;&#45;board.cache_hierarchy.ruby_system.network.routers5</title>
<path fill="none" stroke="#042d50" d="M157.7648,-173.6439C157.9037,-173.7099 158.0428,-173.7758 158.182,-173.8414"/>
<polygon fill="#042d50" stroke="#042d50" points="153.9453,-175.7837 164.5037,-176.6618 156.7974,-169.391 153.9453,-175.7837"/>
</g>
<!-- board.cache_hierarchy.ruby_system.network.routers3&#45;&#45;board.cache_hierarchy.ruby_system.network.routers6 -->
<g id="edge24" class="edge">
<title>board.cache_hierarchy.ruby_system.network.routers3&#45;&#45;board.cache_hierarchy.ruby_system.network.routers6</title>
<path fill="none" stroke="#042d50" d="M143.7342,-173.6714C143.7782,-173.7083 143.8222,-173.745 143.8663,-173.7816"/>
<polygon fill="#042d50" stroke="#042d50" points="134.0611,-170.2101 143.9986,-173.8911 138.5255,-164.8165 134.0611,-170.2101"/>
</g>
<!-- board.cache_hierarchy.ruby_system.network.routers3&#45;&#45;board.cache_hierarchy.ruby_system.network.routers7 -->
<g id="edge25" class="edge">
<title>board.cache_hierarchy.ruby_system.network.routers3&#45;&#45;board.cache_hierarchy.ruby_system.network.routers7</title>
<path fill="none" stroke="#042d50" d="M161.4205,-139.2756C166.4771,-134.9281 171.6383,-130.141 176.343,-125.4342"/>
<polygon fill="#042d50" stroke="#042d50" points="178.8991,-127.8254 183.2798,-118.1786 173.8394,-122.9881 178.8991,-127.8254"/>
</g>
<!-- board.cache_hierarchy.ruby_system.network.routers4&#45;&#45;board.cache_hierarchy.ruby_system.network.routers0 -->
<g id="edge26" class="edge">
<title>board.cache_hierarchy.ruby_system.network.routers4&#45;&#45;board.cache_hierarchy.ruby_system.network.routers0</title>
<path fill="none" stroke="#042d50" d="M191.6432,-139.6893C185.6372,-136.595 179.078,-133.5061 172.6384,-130.73"/>
<polygon fill="#042d50" stroke="#042d50" points="173.9476,-127.484 163.3676,-126.9224 171.2881,-133.9592 173.9476,-127.484"/>
</g>
<!-- board.cache_hierarchy.ruby_system.network.routers4&#45;&#45;board.cache_hierarchy.ruby_system.network.routers1 -->
<g id="edge27" class="edge">
<title>board.cache_hierarchy.ruby_system.network.routers4&#45;&#45;board.cache_hierarchy.ruby_system.network.routers1</title>
<path fill="none" stroke="#042d50" d="M223.4237,-139.8141C223.424,-139.7529 223.4242,-139.6917 223.4243,-139.6305"/>
<polygon fill="#042d50" stroke="#042d50" points="226.9388,-149.4419 223.4241,-139.4471 219.9388,-149.4522 226.9388,-149.4419"/>
</g>
<!-- board.cache_hierarchy.ruby_system.network.routers4&#45;&#45;board.cache_hierarchy.ruby_system.network.routers2 -->
<g id="edge28" class="edge">
<title>board.cache_hierarchy.ruby_system.network.routers4&#45;&#45;board.cache_hierarchy.ruby_system.network.routers2</title>
<path fill="none" stroke="#042d50" d="M207.1852,-139.8368C203.4107,-134.9254 198.8057,-129.5297 193.9704,-124.2948"/>
<polygon fill="#042d50" stroke="#042d50" points="196.2412,-121.6063 186.7913,-116.8156 191.1911,-126.4536 196.2412,-121.6063"/>
</g>
<!-- board.cache_hierarchy.ruby_system.network.routers4&#45;&#45;board.cache_hierarchy.ruby_system.network.routers5 -->
<g id="edge29" class="edge">
<title>board.cache_hierarchy.ruby_system.network.routers4&#45;&#45;board.cache_hierarchy.ruby_system.network.routers5</title>
<path fill="none" stroke="#042d50" d="M197.4981,-175.9124C197.4449,-175.9643 197.3919,-176.0159 197.3392,-176.0673"/>
<polygon fill="#042d50" stroke="#042d50" points="201.9008,-166.7329 197.1817,-176.2208 206.7876,-171.7467 201.9008,-166.7329"/>
</g>
<!-- board.cache_hierarchy.ruby_system.network.routers4&#45;&#45;board.cache_hierarchy.ruby_system.network.routers6 -->
<g id="edge30" class="edge">
<title>board.cache_hierarchy.ruby_system.network.routers4&#45;&#45;board.cache_hierarchy.ruby_system.network.routers6</title>
<path fill="none" stroke="#042d50" d="M188.6714,-160.5088C188.5491,-160.5489 188.4268,-160.5891 188.3045,-160.6296"/>
<polygon fill="#042d50" stroke="#042d50" points="194.0727,-154.9675 185.7349,-161.5047 196.3295,-161.5938 194.0727,-154.9675"/>
</g>
<!-- board.cache_hierarchy.ruby_system.network.routers4&#45;&#45;board.cache_hierarchy.ruby_system.network.routers7 -->
<g id="edge31" class="edge">
<title>board.cache_hierarchy.ruby_system.network.routers4&#45;&#45;board.cache_hierarchy.ruby_system.network.routers7</title>
<path fill="none" stroke="#042d50" d="M215.7051,-139.5704C214.6872,-135.7361 213.3728,-131.6146 211.8818,-127.528"/>
<polygon fill="#042d50" stroke="#042d50" points="215.1133,-126.1826 208.1389,-118.2071 208.6175,-128.7911 215.1133,-126.1826"/>
</g>
<!-- board.cache_hierarchy.ruby_system.network.routers5&#45;&#45;board.cache_hierarchy.ruby_system.network.routers0 -->
<g id="edge32" class="edge">
<title>board.cache_hierarchy.ruby_system.network.routers5&#45;&#45;board.cache_hierarchy.ruby_system.network.routers0</title>
<path fill="none" stroke="#042d50" d="M182.7564,-163.4361C178.8022,-158.2396 173.9389,-152.5027 168.8523,-146.9711"/>
<polygon fill="#042d50" stroke="#042d50" points="171.278,-144.4433 161.842,-139.6253 166.2139,-149.276 171.278,-144.4433"/>
</g>
<!-- board.cache_hierarchy.ruby_system.network.routers5&#45;&#45;board.cache_hierarchy.ruby_system.network.routers1 -->
<g id="edge33" class="edge">
<title>board.cache_hierarchy.ruby_system.network.routers5&#45;&#45;board.cache_hierarchy.ruby_system.network.routers1</title>
<path fill="none" stroke="#042d50" d="M206.812,-163.6461C208.7215,-159.9535 210.5674,-155.9902 212.2174,-152.0507"/>
<polygon fill="#042d50" stroke="#042d50" points="215.5751,-153.0666 215.8405,-142.4751 209.0281,-150.5894 215.5751,-153.0666"/>
</g>
<!-- board.cache_hierarchy.ruby_system.network.routers5&#45;&#45;board.cache_hierarchy.ruby_system.network.routers2 -->
<g id="edge34" class="edge">
<title>board.cache_hierarchy.ruby_system.network.routers5&#45;&#45;board.cache_hierarchy.ruby_system.network.routers2</title>
<path fill="none" stroke="#042d50" d="M190.663,-163.3289C187.8866,-152.3791 183.0178,-138.2824 177.9044,-126.0258"/>
<polygon fill="#042d50" stroke="#042d50" points="181.0234,-124.4241 173.7865,-116.686 174.6183,-127.2481 181.0234,-124.4241"/>
</g>
<!-- board.cache_hierarchy.ruby_system.network.routers5&#45;&#45;board.cache_hierarchy.ruby_system.network.routers3 -->
<g id="edge35" class="edge">
<title>board.cache_hierarchy.ruby_system.network.routers5&#45;&#45;board.cache_hierarchy.ruby_system.network.routers3</title>
<path fill="none" stroke="#042d50" d="M168.0498,-163.5407C167.9109,-163.4748 167.7718,-163.4089 167.6326,-163.3433"/>
<polygon fill="#042d50" stroke="#042d50" points="171.8693,-161.401 161.3109,-160.5229 169.0173,-167.7937 171.8693,-161.401"/>
</g>
<!-- board.cache_hierarchy.ruby_system.network.routers5&#45;&#45;board.cache_hierarchy.ruby_system.network.routers6 -->
<g id="edge36" class="edge">
<title>board.cache_hierarchy.ruby_system.network.routers5&#45;&#45;board.cache_hierarchy.ruby_system.network.routers6</title>
<path fill="none" stroke="#042d50" d="M164.5247,-178.9945C164.4685,-178.9889 164.4125,-178.9834 164.3568,-178.9779"/>
<polygon fill="#042d50" stroke="#042d50" points="174.4882,-176.4677 164.1905,-178.9614 173.7957,-183.4338 174.4882,-176.4677"/>
</g>
<!-- board.cache_hierarchy.ruby_system.network.routers5&#45;&#45;board.cache_hierarchy.ruby_system.network.routers7 -->
<g id="edge37" class="edge">
<title>board.cache_hierarchy.ruby_system.network.routers5&#45;&#45;board.cache_hierarchy.ruby_system.network.routers7</title>
<path fill="none" stroke="#042d50" d="M197.9751,-163.2907C199.3516,-152.9246 200.0245,-139.7532 199.8477,-128.0987"/>
<polygon fill="#042d50" stroke="#042d50" points="203.3386,-127.7983 199.4423,-117.946 196.3442,-128.0777 203.3386,-127.7983"/>
</g>
<!-- board.cache_hierarchy.ruby_system.network.routers6&#45;&#45;board.cache_hierarchy.ruby_system.network.routers0 -->
<g id="edge38" class="edge">
<title>board.cache_hierarchy.ruby_system.network.routers6&#45;&#45;board.cache_hierarchy.ruby_system.network.routers0</title>
<path fill="none" stroke="#042d50" d="M157.9452,-160.2908C156.9356,-156.6993 155.6544,-152.8557 154.2084,-149.0329"/>
<polygon fill="#042d50" stroke="#042d50" points="157.4096,-147.6154 150.3353,-139.7284 150.9471,-150.3056 157.4096,-147.6154"/>
</g>
<!-- board.cache_hierarchy.ruby_system.network.routers6&#45;&#45;board.cache_hierarchy.ruby_system.network.routers1 -->
<g id="edge39" class="edge">
<title>board.cache_hierarchy.ruby_system.network.routers6&#45;&#45;board.cache_hierarchy.ruby_system.network.routers1</title>
<path fill="none" stroke="#042d50" d="M185.4829,-162.5089C190.2025,-158.4795 195.0008,-154.0683 199.4034,-149.711"/>
<polygon fill="#042d50" stroke="#042d50" points="201.9307,-152.1323 206.3554,-142.5057 196.8932,-147.2719 201.9307,-152.1323"/>
</g>
<!-- board.cache_hierarchy.ruby_system.network.routers6&#45;&#45;board.cache_hierarchy.ruby_system.network.routers2 -->
<g id="edge40" class="edge">
<title>board.cache_hierarchy.ruby_system.network.routers6&#45;&#45;board.cache_hierarchy.ruby_system.network.routers2</title>
<path fill="none" stroke="#042d50" d="M164.7841,-160.0357C166.0483,-150.145 166.6342,-137.7306 166.4292,-126.6485"/>
<polygon fill="#042d50" stroke="#042d50" points="169.9215,-126.3945 165.9867,-116.5575 162.9283,-126.7012 169.9215,-126.3945"/>
</g>
<!-- board.cache_hierarchy.ruby_system.network.routers6&#45;&#45;board.cache_hierarchy.ruby_system.network.routers3 -->
<g id="edge41" class="edge">
<title>board.cache_hierarchy.ruby_system.network.routers6&#45;&#45;board.cache_hierarchy.ruby_system.network.routers3</title>
<path fill="none" stroke="#042d50" d="M148.9356,-160.2362C148.8916,-160.1994 148.8476,-160.1627 148.8035,-160.1261"/>
<polygon fill="#042d50" stroke="#042d50" points="158.6087,-163.6975 148.6712,-160.0166 154.1442,-169.0912 158.6087,-163.6975"/>
</g>
<!-- board.cache_hierarchy.ruby_system.network.routers6&#45;&#45;board.cache_hierarchy.ruby_system.network.routers4 -->
<g id="edge42" class="edge">
<title>board.cache_hierarchy.ruby_system.network.routers6&#45;&#45;board.cache_hierarchy.ruby_system.network.routers4</title>
<path fill="none" stroke="#042d50" d="M185.7695,-175.7687C185.8918,-175.7287 186.014,-175.6884 186.1364,-175.6479"/>
<polygon fill="#042d50" stroke="#042d50" points="180.3682,-181.31 188.7059,-174.7729 178.1114,-174.6837 180.3682,-181.31"/>
</g>
<!-- board.cache_hierarchy.ruby_system.network.routers6&#45;&#45;board.cache_hierarchy.ruby_system.network.routers7 -->
<g id="edge43" class="edge">
<title>board.cache_hierarchy.ruby_system.network.routers6&#45;&#45;board.cache_hierarchy.ruby_system.network.routers7</title>
<path fill="none" stroke="#042d50" d="M166.774,-160.1686C171.2609,-150.3502 176.8864,-138.0401 181.8847,-127.1027"/>
<polygon fill="#042d50" stroke="#042d50" points="185.0981,-128.4917 186.0712,-117.9416 178.7314,-125.5821 185.0981,-128.4917"/>
</g>
<!-- board.cache_hierarchy.ruby_system.network.routers7&#45;&#45;board.cache_hierarchy.ruby_system.network.routers0 -->
<g id="edge44" class="edge">
<title>board.cache_hierarchy.ruby_system.network.routers7&#45;&#45;board.cache_hierarchy.ruby_system.network.routers0</title>
<path fill="none" stroke="#042d50" d="M167.0157,-102.8252C166.8601,-102.8782 166.7045,-102.9314 166.5488,-102.9849"/>
<polygon fill="#042d50" stroke="#042d50" points="171.5251,-97.4974 163.2786,-104.1494 173.8734,-104.0918 171.5251,-97.4974"/>
</g>
<!-- board.cache_hierarchy.ruby_system.network.routers7&#45;&#45;board.cache_hierarchy.ruby_system.network.routers1 -->
<g id="edge45" class="edge">
<title>board.cache_hierarchy.ruby_system.network.routers7&#45;&#45;board.cache_hierarchy.ruby_system.network.routers1</title>
<path fill="none" stroke="#042d50" d="M201.9853,-117.8288C202.0286,-117.8722 202.072,-117.9155 202.1155,-117.9586"/>
<polygon fill="#042d50" stroke="#042d50" points="192.672,-113.5451 202.2461,-118.0878 197.5945,-108.5661 192.672,-113.5451"/>
</g>
<!-- board.cache_hierarchy.ruby_system.network.routers7&#45;&#45;board.cache_hierarchy.ruby_system.network.routers2 -->
<g id="edge46" class="edge">
<title>board.cache_hierarchy.ruby_system.network.routers7&#45;&#45;board.cache_hierarchy.ruby_system.network.routers2</title>
<path fill="none" stroke="#042d50" d="M167.142,-93.3922C167.0843,-93.4074 167.0269,-93.4227 166.9698,-93.4383"/>
<polygon fill="#042d50" stroke="#042d50" points="175.5031,-87.4421 166.7992,-93.4855 177.372,-94.1889 175.5031,-87.4421"/>
</g>
<!-- board.cache_hierarchy.ruby_system.network.routers7&#45;&#45;board.cache_hierarchy.ruby_system.network.routers3 -->
<g id="edge47" class="edge">
<title>board.cache_hierarchy.ruby_system.network.routers7&#45;&#45;board.cache_hierarchy.ruby_system.network.routers3</title>
<path fill="none" stroke="#042d50" d="M167.1584,-116.0542C162.1018,-120.4017 156.9406,-125.1888 152.2359,-129.8956"/>
<polygon fill="#042d50" stroke="#042d50" points="149.6798,-127.5044 145.2992,-137.1512 154.7395,-132.3418 149.6798,-127.5044"/>
</g>
<!-- board.cache_hierarchy.ruby_system.network.routers7&#45;&#45;board.cache_hierarchy.ruby_system.network.routers4 -->
<g id="edge48" class="edge">
<title>board.cache_hierarchy.ruby_system.network.routers7&#45;&#45;board.cache_hierarchy.ruby_system.network.routers4</title>
<path fill="none" stroke="#042d50" d="M194.6449,-118.1293C195.6628,-121.9636 196.9772,-126.0851 198.4682,-130.1717"/>
<polygon fill="#042d50" stroke="#042d50" points="195.2367,-131.5171 202.211,-139.4926 201.7325,-128.9086 195.2367,-131.5171"/>
</g>
<!-- board.cache_hierarchy.ruby_system.network.routers7&#45;&#45;board.cache_hierarchy.ruby_system.network.routers5 -->
<g id="edge49" class="edge">
<title>board.cache_hierarchy.ruby_system.network.routers7&#45;&#45;board.cache_hierarchy.ruby_system.network.routers5</title>
<path fill="none" stroke="#042d50" d="M187.9698,-118.1953C186.5932,-128.5615 185.9204,-141.7328 186.0972,-153.3874"/>
<polygon fill="#042d50" stroke="#042d50" points="182.6063,-153.6877 186.5026,-163.5401 189.6007,-153.4084 182.6063,-153.6877"/>
</g>
<!-- board.cache_hierarchy.ruby_system.l1_controllers0 -->
<g id="node9" class="node">
<title>board.cache_hierarchy.ruby_system.l1_controllers0</title>
<path fill="#e5bcd0" stroke="#000000" d="M15.8043,-67.185C15.8043,-67.185 102.8043,-67.185 102.8043,-67.185 108.8043,-67.185 114.8043,-73.185 114.8043,-79.185 114.8043,-79.185 114.8043,-91.185 114.8043,-91.185 114.8043,-97.185 108.8043,-103.185 102.8043,-103.185 102.8043,-103.185 15.8043,-103.185 15.8043,-103.185 9.8043,-103.185 3.8043,-97.185 3.8043,-91.185 3.8043,-91.185 3.8043,-79.185 3.8043,-79.185 3.8043,-73.185 9.8043,-67.185 15.8043,-67.185"/>
<text text-anchor="middle" x="59.3043" y="-81.485" font-family="Arial" font-size="14.00" fill="#000000">l1_controllers0</text>
</g>
<!-- board.cache_hierarchy.ruby_system.l1_controllers0&#45;&#45;board.cache_hierarchy.ruby_system.network.routers0 -->
<g id="edge50" class="edge">
<title>board.cache_hierarchy.ruby_system.l1_controllers0&#45;&#45;board.cache_hierarchy.ruby_system.network.routers0</title>
<path fill="none" stroke="#381526" d="M106.812,-107.5713C106.8977,-107.6117 106.9834,-107.652 107.069,-107.6924"/>
<polygon fill="#381526" stroke="#381526" points="108.2777,-104.3928 97.7397,-103.2963 105.2938,-110.725 108.2777,-104.3928"/>
<polygon fill="#381526" stroke="#381526" points="98.3188,-107.4381 108.8569,-108.5349 101.3029,-101.1058 98.3188,-107.4381"/>
</g>
<!-- board.cache_hierarchy.ruby_system.l1_controllers1 -->
<g id="node10" class="node">
<title>board.cache_hierarchy.ruby_system.l1_controllers1</title>
<path fill="#e5bcd0" stroke="#000000" d="M253.2114,-76.1366C253.2114,-76.1366 340.2114,-76.1366 340.2114,-76.1366 346.2114,-76.1366 352.2114,-82.1366 352.2114,-88.1366 352.2114,-88.1366 352.2114,-100.1366 352.2114,-100.1366 352.2114,-106.1366 346.2114,-112.1366 340.2114,-112.1366 340.2114,-112.1366 253.2114,-112.1366 253.2114,-112.1366 247.2114,-112.1366 241.2114,-106.1366 241.2114,-100.1366 241.2114,-100.1366 241.2114,-88.1366 241.2114,-88.1366 241.2114,-82.1366 247.2114,-76.1366 253.2114,-76.1366"/>
<text text-anchor="middle" x="296.7114" y="-90.4366" font-family="Arial" font-size="14.00" fill="#000000">l1_controllers1</text>
</g>
<!-- board.cache_hierarchy.ruby_system.l1_controllers1&#45;&#45;board.cache_hierarchy.ruby_system.network.routers1 -->
<g id="edge51" class="edge">
<title>board.cache_hierarchy.ruby_system.l1_controllers1&#45;&#45;board.cache_hierarchy.ruby_system.network.routers1</title>
<path fill="none" stroke="#381526" d="M244.7331,-113.9191C244.6848,-113.9374 244.6366,-113.9558 244.5884,-113.9741"/>
<polygon fill="#381526" stroke="#381526" points="241.037,-119.0708 249.138,-112.2426 238.547,-112.5286 241.037,-119.0708"/>
<polygon fill="#381526" stroke="#381526" points="252.544,-107.1967 244.444,-114.0291 255.0368,-113.7392 252.544,-107.1967"/>
</g>
<!-- board.cache_hierarchy.ruby_system.l2_controllers0 -->
<g id="node11" class="node">
<title>board.cache_hierarchy.ruby_system.l2_controllers0</title>
<path fill="#e5bcd0" stroke="#000000" d="M88.7615,-.5C88.7615,-.5 175.7615,-.5 175.7615,-.5 181.7615,-.5 187.7615,-6.5 187.7615,-12.5 187.7615,-12.5 187.7615,-24.5 187.7615,-24.5 187.7615,-30.5 181.7615,-36.5 175.7615,-36.5 175.7615,-36.5 88.7615,-36.5 88.7615,-36.5 82.7615,-36.5 76.7615,-30.5 76.7615,-24.5 76.7615,-24.5 76.7615,-12.5 76.7615,-12.5 76.7615,-6.5 82.7615,-.5 88.7615,-.5"/>
<text text-anchor="middle" x="132.2615" y="-14.8" font-family="Arial" font-size="14.00" fill="#000000">l2_controllers0</text>
</g>
<!-- board.cache_hierarchy.ruby_system.l2_controllers0&#45;&#45;board.cache_hierarchy.ruby_system.network.routers2 -->
<g id="edge52" class="edge">
<title>board.cache_hierarchy.ruby_system.l2_controllers0&#45;&#45;board.cache_hierarchy.ruby_system.network.routers2</title>
<path fill="none" stroke="#381526" d="M142.1132,-46.1453C144.9567,-54.1247 148.0595,-62.8316 150.9042,-70.8142"/>
<polygon fill="#381526" stroke="#381526" points="145.3855,-44.9011 138.7317,-36.6563 138.7916,-47.2509 145.3855,-44.9011"/>
<polygon fill="#381526" stroke="#381526" points="147.6767,-72.1841 154.3305,-80.4289 154.2706,-69.8343 147.6767,-72.1841"/>
</g>
<!-- board.cache_hierarchy.ruby_system.l2_controllers1 -->
<g id="node12" class="node">
<title>board.cache_hierarchy.ruby_system.l2_controllers1</title>
<path fill="#e5bcd0" stroke="#000000" d="M12,-167.9284C12,-167.9284 99,-167.9284 99,-167.9284 105,-167.9284 111,-173.9284 111,-179.9284 111,-179.9284 111,-191.9284 111,-191.9284 111,-197.9284 105,-203.9284 99,-203.9284 99,-203.9284 12,-203.9284 12,-203.9284 6,-203.9284 0,-197.9284 0,-191.9284 0,-191.9284 0,-179.9284 0,-179.9284 0,-173.9284 6,-167.9284 12,-167.9284"/>
<text text-anchor="middle" x="55.5" y="-182.2284" font-family="Arial" font-size="14.00" fill="#000000">l2_controllers1</text>
</g>
<!-- board.cache_hierarchy.ruby_system.l2_controllers1&#45;&#45;board.cache_hierarchy.ruby_system.network.routers3 -->
<g id="edge53" class="edge">
<title>board.cache_hierarchy.ruby_system.l2_controllers1&#45;&#45;board.cache_hierarchy.ruby_system.network.routers3</title>
<path fill="none" stroke="#381526" d="M106.6213,-166.1784C106.6697,-166.1597 106.718,-166.141 106.7664,-166.1223"/>
<polygon fill="#381526" stroke="#381526" points="110.2708,-161.0161 102.2041,-167.8849 112.7936,-167.5458 110.2708,-161.0161"/>
<polygon fill="#381526" stroke="#381526" points="98.8456,-172.9392 106.9113,-166.0663 96.3201,-166.4092 98.8456,-172.9392"/>
</g>
<!-- board.cache_hierarchy.ruby_system.directory_controllers0 -->
<g id="node13" class="node">
<title>board.cache_hierarchy.ruby_system.directory_controllers0</title>
<path fill="#e5bcd0" stroke="#000000" d="M228.3563,-174.1862C228.3563,-174.1862 359.3563,-174.1862 359.3563,-174.1862 365.3563,-174.1862 371.3563,-180.1862 371.3563,-186.1862 371.3563,-186.1862 371.3563,-198.1862 371.3563,-198.1862 371.3563,-204.1862 365.3563,-210.1862 359.3563,-210.1862 359.3563,-210.1862 228.3563,-210.1862 228.3563,-210.1862 222.3563,-210.1862 216.3563,-204.1862 216.3563,-198.1862 216.3563,-198.1862 216.3563,-186.1862 216.3563,-186.1862 216.3563,-180.1862 222.3563,-174.1862 228.3563,-174.1862"/>
<text text-anchor="middle" x="293.8563" y="-188.4862" font-family="Arial" font-size="14.00" fill="#000000">directory_controllers0</text>
</g>
<!-- board.cache_hierarchy.ruby_system.directory_controllers0&#45;&#45;board.cache_hierarchy.ruby_system.network.routers4 -->
<g id="edge54" class="edge">
<title>board.cache_hierarchy.ruby_system.directory_controllers0&#45;&#45;board.cache_hierarchy.ruby_system.network.routers4</title>
<path fill="none" stroke="#381526" d="M243.455,-169.9816C243.4068,-169.9604 243.3586,-169.9391 243.3104,-169.9179"/>
<polygon fill="#381526" stroke="#381526" points="242.0835,-173.202 252.6459,-174.0307 244.9057,-166.7961 242.0835,-173.202"/>
<polygon fill="#381526" stroke="#381526" points="253.7301,-170.6865 243.1659,-169.8542 250.9053,-177.0928 253.7301,-170.6865"/>
</g>
<!-- board.cache_hierarchy.ruby_system.directory_controllers1 -->
<g id="node14" class="node">
<title>board.cache_hierarchy.ruby_system.directory_controllers1</title>
<path fill="#e5bcd0" stroke="#000000" d="M156.1004,-242.6049C156.1004,-242.6049 287.1004,-242.6049 287.1004,-242.6049 293.1004,-242.6049 299.1004,-248.6049 299.1004,-254.6049 299.1004,-254.6049 299.1004,-266.6049 299.1004,-266.6049 299.1004,-272.6049 293.1004,-278.6049 287.1004,-278.6049 287.1004,-278.6049 156.1004,-278.6049 156.1004,-278.6049 150.1004,-278.6049 144.1004,-272.6049 144.1004,-266.6049 144.1004,-266.6049 144.1004,-254.6049 144.1004,-254.6049 144.1004,-248.6049 150.1004,-242.6049 156.1004,-242.6049"/>
<text text-anchor="middle" x="221.6004" y="-256.9049" font-family="Arial" font-size="14.00" fill="#000000">directory_controllers1</text>
</g>
<!-- board.cache_hierarchy.ruby_system.directory_controllers1&#45;&#45;board.cache_hierarchy.ruby_system.network.routers5 -->
<g id="edge55" class="edge">
<title>board.cache_hierarchy.ruby_system.directory_controllers1&#45;&#45;board.cache_hierarchy.ruby_system.network.routers5</title>
<path fill="none" stroke="#381526" d="M211.01,-232.7495C208.1254,-225.1622 205.0019,-216.9464 202.1206,-209.3678"/>
<polygon fill="#381526" stroke="#381526" points="207.8147,-234.1939 214.64,-242.2973 214.3578,-231.7062 207.8147,-234.1939"/>
<polygon fill="#381526" stroke="#381526" points="205.3382,-207.9821 198.5129,-199.8787 198.7951,-210.4698 205.3382,-207.9821"/>
</g>
<!-- board.cache_hierarchy.ruby_system.dma_controllers0 -->
<g id="node15" class="node">
<title>board.cache_hierarchy.ruby_system.dma_controllers0</title>
<path fill="#e5bcd0" stroke="#000000" d="M71.5068,-238.7858C71.5068,-238.7858 175.5068,-238.7858 175.5068,-238.7858 181.5068,-238.7858 187.5068,-244.7858 187.5068,-250.7858 187.5068,-250.7858 187.5068,-262.7858 187.5068,-262.7858 187.5068,-268.7858 181.5068,-274.7858 175.5068,-274.7858 175.5068,-274.7858 71.5068,-274.7858 71.5068,-274.7858 65.5068,-274.7858 59.5068,-268.7858 59.5068,-262.7858 59.5068,-262.7858 59.5068,-250.7858 59.5068,-250.7858 59.5068,-244.7858 65.5068,-238.7858 71.5068,-238.7858"/>
<text text-anchor="middle" x="123.5068" y="-253.0858" font-family="Arial" font-size="14.00" fill="#000000">dma_controllers0</text>
</g>
<!-- board.cache_hierarchy.ruby_system.dma_controllers0&#45;&#45;board.cache_hierarchy.ruby_system.network.routers6 -->
<g id="edge56" class="edge">
<title>board.cache_hierarchy.ruby_system.dma_controllers0&#45;&#45;board.cache_hierarchy.ruby_system.network.routers6</title>
<path fill="none" stroke="#381526" d="M135.6887,-229.4531C139.111,-221.7744 142.8322,-213.4251 146.255,-205.7454"/>
<polygon fill="#381526" stroke="#381526" points="132.4843,-228.0452 131.6102,-238.604 138.878,-230.8949 132.4843,-228.0452"/>
<polygon fill="#381526" stroke="#381526" points="149.5119,-207.0354 150.3859,-196.4766 143.1181,-204.1857 149.5119,-207.0354"/>
</g>
<!-- board.cache_hierarchy.ruby_system.dma_controllers1 -->
<g id="node16" class="node">
<title>board.cache_hierarchy.ruby_system.dma_controllers1</title>
<path fill="#e5bcd0" stroke="#000000" d="M178.1174,-4.6861C178.1174,-4.6861 282.1174,-4.6861 282.1174,-4.6861 288.1174,-4.6861 294.1174,-10.6861 294.1174,-16.6861 294.1174,-16.6861 294.1174,-28.6861 294.1174,-28.6861 294.1174,-34.6861 288.1174,-40.6861 282.1174,-40.6861 282.1174,-40.6861 178.1174,-40.6861 178.1174,-40.6861 172.1174,-40.6861 166.1174,-34.6861 166.1174,-28.6861 166.1174,-28.6861 166.1174,-16.6861 166.1174,-16.6861 166.1174,-10.6861 172.1174,-4.6861 178.1174,-4.6861"/>
<text text-anchor="middle" x="230.1174" y="-18.9861" font-family="Arial" font-size="14.00" fill="#000000">dma_controllers1</text>
</g>
<!-- board.cache_hierarchy.ruby_system.dma_controllers1&#45;&#45;board.cache_hierarchy.ruby_system.network.routers7 -->
<g id="edge57" class="edge">
<title>board.cache_hierarchy.ruby_system.dma_controllers1&#45;&#45;board.cache_hierarchy.ruby_system.network.routers7</title>
<path fill="none" stroke="#381526" d="M217.3859,-50.1441C214.0487,-57.3415 210.4498,-65.1032 207.1112,-72.3034"/>
<polygon fill="#381526" stroke="#381526" points="220.6108,-51.5093 221.6421,-40.9647 214.2603,-48.5646 220.6108,-51.5093"/>
<polygon fill="#381526" stroke="#381526" points="203.8004,-71.1237 202.769,-81.6682 210.1509,-74.0683 203.8004,-71.1237"/>
</g>
</g>
</svg>
